<?xml version="1.0" encoding="UTF-8" standalone="no"?>
<!DOCTYPE svg PUBLIC "-//W3C//DTD SVG 1.1//EN"
 "http://www.w3.org/Graphics/SVG/1.1/DTD/svg11.dtd">
<!-- Generated by graphviz version 9.0.0 (20230911.1827)
 -->
<!-- Title: lifecycle Pages: 1 -->
<svg width="153pt" height="260pt"
 viewBox="0.00 0.00 153.35 260.00" xmlns="http://www.w3.org/2000/svg" xmlns:xlink="http://www.w3.org/1999/xlink">
<g id="graph0" class="graph" transform="scale(1 1) rotate(0) translate(4 256)">
<title>lifecycle</title>
<polygon fill="white" stroke="none" points="-4,4 -4,-256 149.35,-256 149.35,4 -4,4"/>
<!-- Incubation -->
<g id="node1" class="node">
<title>Incubation</title>
<polygon fill="none" stroke="purple" points="73.75,-252 0,-252 0,-216 73.75,-216 73.75,-252"/>
<text text-anchor="middle" x="36.88" y="-228.95" font-family="Times,serif" font-size="14.00">Incubation</text>
</g>
<!-- Graduated -->
<g id="node2" class="node">
<title>Graduated</title>
<polygon fill="none" stroke="blue" points="73,-180 0.75,-180 0.75,-144 73,-144 73,-180"/>
<text text-anchor="middle" x="36.88" y="-156.95" font-family="Times,serif" font-size="14.00">Graduated</text>
</g>
<!-- Incubation&#45;&gt;Graduated -->
<g id="edge1" class="edge">
<title>Incubation&#45;&gt;Graduated</title>
<path fill="none" stroke="purple" d="M30.96,-215.7C30.21,-208.41 29.96,-199.73 30.23,-191.54"/>
<polygon fill="purple" stroke="purple" points="33.72,-191.82 30.88,-181.61 26.73,-191.36 33.72,-191.82"/>
</g>
<!-- Dormant -->
<g id="node3" class="node">
<title>Dormant</title>
<polygon fill="none" stroke="black" points="69.25,-108 4.5,-108 4.5,-72 69.25,-72 69.25,-108"/>
<text text-anchor="middle" x="36.88" y="-84.95" font-family="Times,serif" font-size="14.00">Dormant</text>
</g>
<!-- Incubation&#45;&gt;Dormant -->
<g id="edge2" class="edge">
<title>Incubation&#45;&gt;Dormant</title>
<path fill="none" stroke="purple" d="M57.25,-215.53C66.68,-206.09 76.88,-193.6 81.88,-180 87.39,-164.98 87.39,-159.02 81.88,-144 78.25,-134.12 71.87,-124.82 65.04,-116.86"/>
<polygon fill="purple" stroke="purple" points="67.65,-114.53 58.28,-109.58 62.52,-119.29 67.65,-114.53"/>
</g>
<!-- Graduated&#45;&gt;Incubation -->
<g id="edge3" class="edge">
<title>Graduated&#45;&gt;Incubation</title>
<path fill="none" stroke="blue" d="M42.77,-180.1C43.53,-187.37 43.78,-196.04 43.53,-204.24"/>
<polygon fill="blue" stroke="blue" points="40.04,-203.98 42.89,-214.19 47.02,-204.43 40.04,-203.98"/>
</g>
<!-- Graduated&#45;&gt;Dormant -->
<g id="edge4" class="edge">
<title>Graduated&#45;&gt;Dormant</title>
<path fill="none" stroke="blue" d="M36.88,-143.7C36.88,-136.41 36.88,-127.73 36.88,-119.54"/>
<polygon fill="blue" stroke="blue" points="40.38,-119.62 36.88,-109.62 33.38,-119.62 40.38,-119.62"/>
</g>
<!-- Dormant&#45;&gt;Incubation -->
<g id="edge5" class="edge">
<title>Dormant:e&#45;&gt;Incubation</title>
<path fill="none" stroke="black" d="M69.88,-90C111.77,-90 115.25,-141.88 97.88,-180 92.85,-191.03 84.27,-200.65 75.1,-208.56"/>
<polygon fill="black" stroke="black" points="73.07,-205.7 67.42,-214.66 77.43,-211.18 73.07,-205.7"/>
</g>
<!-- Archived -->
<g id="node4" class="node">
<title>Archived</title>
<polygon fill="none" stroke="green" points="70,-36 3.75,-36 3.75,0 70,0 70,-36"/>
<text text-anchor="middle" x="36.88" y="-12.95" font-family="Times,serif" font-size="14.00">Archived</text>
</g>
<!-- Dormant&#45;&gt;Archived -->
<g id="edge6" class="edge">
<title>Dormant&#45;&gt;Archived</title>
<path fill="none" stroke="black" d="M36.88,-71.7C36.88,-64.41 36.88,-55.73 36.88,-47.54"/>
<polygon fill="black" stroke="black" points="40.38,-47.62 36.88,-37.62 33.38,-47.62 40.38,-47.62"/>
</g>
<!-- Archived&#45;&gt;Incubation -->
<g id="edge7" class="edge">
<title>Archived:e&#45;&gt;Incubation:e</title>
<path fill="none" stroke="green" d="M70.88,-18C162.95,-18 170.41,-216.64 86.19,-232.94"/>
<polygon fill="green" stroke="green" points="86.01,-229.44 76.38,-233.86 86.66,-236.41 86.01,-229.44"/>
</g>
</g>
</svg>
