<?xml version="1.0" encoding="UTF-8" standalone="no"?>
<!DOCTYPE svg PUBLIC "-//W3C//DTD SVG 1.1//EN"
 "http://www.w3.org/Graphics/SVG/1.1/DTD/svg11.dtd">
<!-- Generated by graphviz version 9.0.0 (20230911.1827)
 -->
<!-- Title: lifecycle Pages: 1 -->
<svg width="116pt" height="260pt"
 viewBox="0.00 0.00 116.38 260.00" xmlns="http://www.w3.org/2000/svg" xmlns:xlink="http://www.w3.org/1999/xlink">
<g id="graph0" class="graph" transform="scale(1 1) rotate(0) translate(4 256)">
<title>lifecycle</title>
<polygon fill="white" stroke="none" points="-4,4 -4,-256 112.38,-256 112.38,4 -4,4"/>
<!-- Proposal -->
<g id="node1" class="node">
<title>Proposal</title>
<polygon fill="none" stroke="black" points="68.5,-252 5.25,-252 5.25,-216 68.5,-216 68.5,-252"/>
<text text-anchor="middle" x="36.88" y="-228.95" font-family="Times,serif" font-size="14.00">Proposal</text>
</g>
<!-- Incubation -->
<g id="node2" class="node">
<title>Incubation</title>
<polygon fill="none" stroke="purple" points="73.75,-180 0,-180 0,-144 73.75,-144 73.75,-180"/>
<text text-anchor="middle" x="36.88" y="-156.95" font-family="Times,serif" font-size="14.00">Incubation</text>
</g>
<!-- Proposal&#45;&gt;Incubation -->
<g id="edge1" class="edge">
<title>Proposal&#45;&gt;Incubation</title>
<path fill="none" stroke="black" d="M36.88,-215.7C36.88,-208.41 36.88,-199.73 36.88,-191.54"/>
<polygon fill="black" stroke="black" points="40.38,-191.62 36.88,-181.62 33.38,-191.62 40.38,-191.62"/>
</g>
<!-- Graduated -->
<g id="node3" class="node">
<title>Graduated</title>
<polygon fill="none" stroke="blue" points="73,-108 0.75,-108 0.75,-72 73,-72 73,-108"/>
<text text-anchor="middle" x="36.88" y="-84.95" font-family="Times,serif" font-size="14.00">Graduated</text>
</g>
<!-- Incubation&#45;&gt;Graduated -->
<g id="edge2" class="edge">
<title>Incubation&#45;&gt;Graduated</title>
<path fill="none" stroke="purple" d="M36.88,-143.7C36.88,-136.41 36.88,-127.73 36.88,-119.54"/>
<polygon fill="purple" stroke="purple" points="40.38,-119.62 36.88,-109.62 33.38,-119.62 40.38,-119.62"/>
</g>
<!-- Archived -->
<g id="node4" class="node">
<title>Archived</title>
<polygon fill="none" stroke="black" points="70,-36 3.75,-36 3.75,0 70,0 70,-36"/>
<text text-anchor="middle" x="36.88" y="-12.95" font-family="Times,serif" font-size="14.00">Archived</text>
</g>
<!-- Incubation&#45;&gt;Archived -->
<g id="edge3" class="edge">
<title>Incubation&#45;&gt;Archived</title>
<path fill="none" stroke="purple" d="M57.25,-143.53C66.68,-134.09 76.88,-121.6 81.88,-108 87.39,-92.98 87.39,-87.02 81.88,-72 78.25,-62.12 71.87,-52.82 65.04,-44.86"/>
<polygon fill="purple" stroke="purple" points="67.65,-42.53 58.28,-37.58 62.52,-47.29 67.65,-42.53"/>
</g>
<!-- Graduated&#45;&gt;Archived -->
<g id="edge4" class="edge">
<title>Graduated&#45;&gt;Archived</title>
<path fill="none" stroke="blue" d="M36.88,-71.7C36.88,-64.41 36.88,-55.73 36.88,-47.54"/>
<polygon fill="blue" stroke="blue" points="40.38,-47.62 36.88,-37.62 33.38,-47.62 40.38,-47.62"/>
</g>
<!-- Archived&#45;&gt;Incubation -->
<g id="edge5" class="edge">
<title>Archived:e&#45;&gt;Incubation</title>
<path fill="none" stroke="black" d="M70.88,-18C112.64,-18 115.2,-70 97.88,-108 92.85,-119.03 84.27,-128.65 75.1,-136.56"/>
<polygon fill="black" stroke="black" points="73.07,-133.7 67.42,-142.66 77.43,-139.18 73.07,-133.7"/>
</g>
</g>
</svg>
