<?xml version="1.0" encoding="UTF-8" standalone="no"?>
<!DOCTYPE svg PUBLIC "-//W3C//DTD SVG 1.1//EN"
 "http://www.w3.org/Graphics/SVG/1.1/DTD/svg11.dtd">
<!-- Generated by graphviz version 2.47.1 (20210417.1919)
 -->
<!-- Title: lifecycle Pages: 1 -->
<svg width="224pt" height="404pt"
 viewBox="0.00 0.00 224.00 404.00" xmlns="http://www.w3.org/2000/svg" xmlns:xlink="http://www.w3.org/1999/xlink">
<g id="graph0" class="graph" transform="scale(1 1) rotate(0) translate(4 400)">
<title>lifecycle</title>
<polygon fill="white" stroke="transparent" points="-4,4 -4,-400 220,-400 220,4 -4,4"/>
<!-- EndOfLife -->
<g id="node1" class="node">
<title>EndOfLife</title>
<polygon fill="none" stroke="black" points="119.5,-36 39.5,-36 39.5,0 119.5,0 119.5,-36"/>
<text text-anchor="middle" x="79.5" y="-14.3" font-family="Times,serif" font-size="14.00">End of Life</text>
</g>
<!-- Proposal -->
<g id="node2" class="node">
<title>Proposal</title>
<polygon fill="none" stroke="black" points="158.5,-396 94.5,-396 94.5,-360 158.5,-360 158.5,-396"/>
<text text-anchor="middle" x="126.5" y="-374.3" font-family="Times,serif" font-size="14.00">Proposal</text>
</g>
<!-- Incubation -->
<g id="node3" class="node">
<title>Incubation</title>
<polygon fill="none" stroke="purple" points="163.5,-324 89.5,-324 89.5,-288 163.5,-288 163.5,-324"/>
<text text-anchor="middle" x="126.5" y="-302.3" font-family="Times,serif" font-size="14.00">Incubation</text>
</g>
<!-- Proposal&#45;&gt;Incubation -->
<g id="edge1" class="edge">
<title>Proposal&#45;&gt;Incubation</title>
<path fill="none" stroke="black" d="M126.5,-359.7C126.5,-351.98 126.5,-342.71 126.5,-334.11"/>
<polygon fill="black" stroke="black" points="130,-334.1 126.5,-324.1 123,-334.1 130,-334.1"/>
</g>
<!-- Incubation&#45;&gt;EndOfLife -->
<g id="edge6" class="edge">
<title>Incubation&#45;&gt;EndOfLife</title>
<path fill="none" stroke="purple" d="M89.42,-298.02C63.83,-291.06 31.61,-277.56 15.5,-252 -26.88,-184.8 28.46,-89.52 60.14,-44.48"/>
<polygon fill="purple" stroke="purple" points="63.12,-46.32 66.12,-36.16 57.44,-42.23 63.12,-46.32"/>
</g>
<!-- Graduated -->
<g id="node4" class="node">
<title>Graduated</title>
<polygon fill="none" stroke="blue" points="98,-252 25,-252 25,-216 98,-216 98,-252"/>
<text text-anchor="middle" x="61.5" y="-230.3" font-family="Times,serif" font-size="14.00">Graduated</text>
</g>
<!-- Incubation&#45;&gt;Graduated -->
<g id="edge2" class="edge">
<title>Incubation&#45;&gt;Graduated</title>
<path fill="none" stroke="purple" d="M110.43,-287.7C102.56,-279.22 92.94,-268.86 84.32,-259.58"/>
<polygon fill="purple" stroke="purple" points="86.75,-257.05 77.38,-252.1 81.62,-261.81 86.75,-257.05"/>
</g>
<!-- Dormant -->
<g id="node5" class="node">
<title>Dormant</title>
<polygon fill="none" stroke="red" points="216,-180 151,-180 151,-144 216,-144 216,-180"/>
<text text-anchor="middle" x="183.5" y="-158.3" font-family="Times,serif" font-size="14.00">Dormant</text>
</g>
<!-- Incubation&#45;&gt;Dormant -->
<g id="edge7" class="edge">
<title>Incubation&#45;&gt;Dormant</title>
<path fill="none" stroke="purple" d="M128.79,-287.87C136.04,-263.35 153.96,-218.03 167.58,-189.26"/>
<polygon fill="purple" stroke="purple" points="170.76,-190.71 172,-180.19 164.47,-187.64 170.76,-190.71"/>
</g>
<!-- Deprecated -->
<g id="node6" class="node">
<title>Deprecated</title>
<polygon fill="none" stroke="black" points="153.5,-108 75.5,-108 75.5,-72 153.5,-72 153.5,-108"/>
<text text-anchor="middle" x="114.5" y="-86.3" font-family="Times,serif" font-size="14.00">Deprecated</text>
</g>
<!-- Incubation&#45;&gt;Deprecated -->
<g id="edge8" class="edge">
<title>Incubation&#45;&gt;Deprecated</title>
<path fill="none" stroke="purple" d="M125.53,-287.85C123.46,-250.83 118.54,-163.18 116.03,-118.39"/>
<polygon fill="purple" stroke="purple" points="119.52,-118.02 115.46,-108.23 112.53,-118.41 119.52,-118.02"/>
</g>
<!-- Graduated&#45;&gt;EndOfLife -->
<g id="edge9" class="edge">
<title>Graduated&#45;&gt;EndOfLife</title>
<path fill="none" stroke="blue" d="M60.86,-215.98C60.02,-186.5 59.38,-124.09 66.5,-72 67.67,-63.42 69.66,-54.21 71.74,-45.91"/>
<polygon fill="blue" stroke="blue" points="75.18,-46.57 74.36,-36.01 68.42,-44.78 75.18,-46.57"/>
</g>
<!-- Graduated&#45;&gt;Dormant -->
<g id="edge3" class="edge">
<title>Graduated&#45;&gt;Dormant</title>
<path fill="none" stroke="blue" d="M91.34,-215.88C107.44,-206.64 127.5,-195.13 144.78,-185.21"/>
<polygon fill="blue" stroke="blue" points="146.6,-188.2 153.54,-180.19 143.12,-182.13 146.6,-188.2"/>
</g>
<!-- Graduated&#45;&gt;Deprecated -->
<g id="edge10" class="edge">
<title>Graduated&#45;&gt;Deprecated</title>
<path fill="none" stroke="blue" d="M67.89,-215.87C77,-191.46 93.81,-146.43 104.55,-117.64"/>
<polygon fill="blue" stroke="blue" points="107.86,-118.78 108.08,-108.19 101.3,-116.33 107.86,-118.78"/>
</g>
<!-- Dormant&#45;&gt;EndOfLife -->
<g id="edge11" class="edge">
<title>Dormant&#45;&gt;EndOfLife</title>
<path fill="none" stroke="red" d="M183.19,-143.7C182.05,-124.53 177.75,-93.49 162.5,-72 153.65,-59.54 140.87,-49.32 127.97,-41.29"/>
<polygon fill="red" stroke="red" points="129.47,-38.11 119.07,-36.09 125.94,-44.16 129.47,-38.11"/>
</g>
<!-- Dormant&#45;&gt;Incubation -->
<g id="edge12" class="edge">
<title>Dormant&#45;&gt;Incubation</title>
<path fill="none" stroke="red" d="M181.19,-180.19C173.92,-204.74 155.99,-250.07 142.38,-278.81"/>
<polygon fill="red" stroke="red" points="139.2,-277.35 137.96,-287.87 145.49,-280.42 139.2,-277.35"/>
</g>
<!-- Dormant&#45;&gt;Deprecated -->
<g id="edge4" class="edge">
<title>Dormant&#45;&gt;Deprecated</title>
<path fill="none" stroke="red" d="M166.44,-143.7C158,-135.14 147.67,-124.66 138.45,-115.3"/>
<polygon fill="red" stroke="red" points="140.87,-112.77 131.36,-108.1 135.88,-117.68 140.87,-112.77"/>
</g>
<!-- Deprecated&#45;&gt;EndOfLife -->
<g id="edge5" class="edge">
<title>Deprecated&#45;&gt;EndOfLife</title>
<path fill="none" stroke="black" d="M105.84,-71.7C101.86,-63.73 97.05,-54.1 92.63,-45.26"/>
<polygon fill="black" stroke="black" points="95.65,-43.48 88.05,-36.1 89.39,-46.61 95.65,-43.48"/>
</g>
</g>
</svg>
