<svg id="Layer_1" data-name="Layer 1" xmlns="http://www.w3.org/2000/svg" viewBox="0 0 522 72"><defs><style>.cls-1{fill:#2f3134;}</style></defs><title>hyperledger_project_logo</title><path class="cls-1" d="M93,23.4l5.79,0,0.05,9.79,11.25-.06L110,23.31l5.79,0L116,49.53l-5.79,0-0.06-11.35-11.25.06,0.06,11.35-5.79,0Z"/><path class="cls-1" d="M127.34,38.27l-10-15,7.2,0,5.62,9.8,5.85-9.86,6.87,0-9.79,15.11,0.06,11.2-5.79,0Z"/><path class="cls-1" d="M144.48,23.13l9.76-.05a19.15,19.15,0,0,1,3.86.35,8.84,8.84,0,0,1,3.18,1.26,6.5,6.5,0,0,1,2.16,2.44,8.39,8.39,0,0,1,.82,3.87,9,9,0,0,1-.72,3.86,6.36,6.36,0,0,1-2,2.49,8.25,8.25,0,0,1-3.07,1.33,18,18,0,0,1-3.86.41l-4.23,0,0.05,10.24-5.79,0Zm5.85,11.1,3.86,0a7.45,7.45,0,0,0,1.5-.15,4,4,0,0,0,1.3-.51,2.67,2.67,0,0,0,.92-1,3.05,3.05,0,0,0,.35-1.54,2.61,2.61,0,0,0-.47-1.61,3.08,3.08,0,0,0-1.19-.94,5.14,5.14,0,0,0-1.62-.42,16.48,16.48,0,0,0-1.71-.08h-3Z"/><path class="cls-1" d="M167.72,23l17.85-.09,0,5.34-12.06.06,0,4.9L185,33.15l0,5.34-11.39.06,0,5.34,12.73-.07,0,5.34-18.52.1Z"/><path class="cls-1" d="M190.5,22.89l10.17-.05a17.87,17.87,0,0,1,3.8.37,9.1,9.1,0,0,1,3.16,1.28,6.5,6.5,0,0,1,2.16,2.44,8.31,8.31,0,0,1,.82,3.83,7.72,7.72,0,0,1-1.42,4.74A6.51,6.51,0,0,1,205,38L211.72,49l-6.94,0L199.24,38.6h-2.86l0.05,10.49-5.79,0Zm5.85,10.83,3.42,0c0.52,0,1.07,0,1.65-.07A5.2,5.2,0,0,0,203,33.3a2.74,2.74,0,0,0,1.16-.88,2.67,2.67,0,0,0,.45-1.67,2.79,2.79,0,0,0-.42-1.59,2.72,2.72,0,0,0-1-.9,4.64,4.64,0,0,0-1.45-.42,11.71,11.71,0,0,0-1.6-.1l-3.79,0Z"/><path class="cls-1" d="M214.41,22.76l5.79,0,0.11,20.92L231,43.59l0,5.34L214.54,49Z"/><path class="cls-1" d="M234,22.66l17.85-.09,0,5.34L239.78,28l0,4.9,11.39-.06,0,5.34-11.39.06,0,5.34,12.73-.07,0,5.34-18.52.1Z"/><path class="cls-1" d="M256.75,22.54l8.69,0a25,25,0,0,1,6,.67,13.76,13.76,0,0,1,5,2.26,11.18,11.18,0,0,1,3.38,4.08,13.73,13.73,0,0,1,1.27,6.11,12.46,12.46,0,0,1-1.18,5.63,12.06,12.06,0,0,1-3.22,4.1,14.39,14.39,0,0,1-4.7,2.53,18.3,18.3,0,0,1-5.6.88l-9.47.05Zm5.9,20.89,3,0a16.22,16.22,0,0,0,3.73-.43,8,8,0,0,0,3-1.37,6.46,6.46,0,0,0,2-2.49,8.81,8.81,0,0,0,.71-3.77A7.33,7.33,0,0,0,274.3,32a6.69,6.69,0,0,0-2-2.35,8.52,8.52,0,0,0-2.88-1.38,12.78,12.78,0,0,0-3.47-.45l-3.42,0Z"/><path class="cls-1" d="M308.47,46.67a21,21,0,0,1-5.33,2,27.25,27.25,0,0,1-5.68.62,16.26,16.26,0,0,1-5.68-.93,13,13,0,0,1-4.5-2.74,12.48,12.48,0,0,1-3-4.34,14.84,14.84,0,0,1-1.09-5.71,14.81,14.81,0,0,1,1-5.71,12.52,12.52,0,0,1,2.93-4.37,13,13,0,0,1,4.48-2.79,16.13,16.13,0,0,1,5.67-1,21.07,21.07,0,0,1,5.81.73A11.39,11.39,0,0,1,307.8,25l-4.06,4.47a8.16,8.16,0,0,0-2.68-1.84,9.51,9.51,0,0,0-3.71-.61,8.59,8.59,0,0,0-3.35.65,7.58,7.58,0,0,0-2.57,1.77,7.78,7.78,0,0,0-1.64,2.7,10.23,10.23,0,0,0,0,6.77,7.79,7.79,0,0,0,1.66,2.66,7.55,7.55,0,0,0,2.59,1.75,8.64,8.64,0,0,0,3.36.61,11.1,11.1,0,0,0,3.27-.44,12.1,12.1,0,0,0,2.18-.88l0-4.27-4.71,0,0-5.34,10.28-.05Z"/><path class="cls-1" d="M313.28,22.24l17.85-.1,0,5.34-12.06.06,0,4.9,11.39-.06,0,5.34-11.39.06,0,5.34,12.73-.07,0,5.34-18.52.1Z"/><path class="cls-1" d="M336.06,22.12l10.17-.05a17.78,17.78,0,0,1,3.81.37,9.1,9.1,0,0,1,3.16,1.28,6.47,6.47,0,0,1,2.16,2.44,8.3,8.3,0,0,1,.82,3.83,7.72,7.72,0,0,1-1.42,4.74,6.53,6.53,0,0,1-4.22,2.49l6.74,11.05-6.94,0-5.55-10.47h-2.86L342,48.35l-5.79,0ZM341.91,33l3.42,0c0.52,0,1.07,0,1.65-.06a5.14,5.14,0,0,0,1.57-.34,2.72,2.72,0,0,0,1.16-.88,2.66,2.66,0,0,0,.46-1.67,2.79,2.79,0,0,0-.42-1.59,2.74,2.74,0,0,0-1-.9,4.59,4.59,0,0,0-1.45-.42,11.72,11.72,0,0,0-1.6-.1l-3.79,0Z"/><path class="cls-1" d="M370.75,23.62l7.29,0a15.54,15.54,0,0,1,3.25.31A8.05,8.05,0,0,1,384,25,5.72,5.72,0,0,1,386,27.07a6.62,6.62,0,0,1,.73,3.21,6.57,6.57,0,0,1-.75,3.33,5.94,5.94,0,0,1-2,2.09,8,8,0,0,1-2.62,1.09,12.63,12.63,0,0,1-2.71.32l-4.93,0,0.06,11-2.92,0Zm3,10.81,4.93,0a5.94,5.94,0,0,0,3.56-1,3.53,3.53,0,0,0,1.35-3.08,3.53,3.53,0,0,0-1.39-3.06,6,6,0,0,0-3.56-1l-4.93,0Z"/><path class="cls-1" d="M391,23.52l6.29,0a29.65,29.65,0,0,1,3.53.19,9.45,9.45,0,0,1,3.15.89,5.7,5.7,0,0,1,2.27,2,6.59,6.59,0,0,1,.89,3.62,6,6,0,0,1-1.61,4.38,7.8,7.8,0,0,1-4.5,2.14L408,48l-3.58,0-6.73-11L394,37l0.06,11h-2.92Zm3,10.81h2.6c0.81,0,1.65,0,2.52-.08a8.65,8.65,0,0,0,2.39-.46,4.2,4.2,0,0,0,1.8-1.21,3.46,3.46,0,0,0,.7-2.35,3.81,3.81,0,0,0-.53-2.11,3.53,3.53,0,0,0-1.38-1.22,5.84,5.84,0,0,0-1.91-.56,16.32,16.32,0,0,0-2.14-.13l-4.1,0Z"/><path class="cls-1" d="M423.43,48.54a13.31,13.31,0,0,1-5.16-.94,12.39,12.39,0,0,1-4.08-2.67,12.07,12.07,0,0,1-2.7-4.08,14.39,14.39,0,0,1-.05-10.31,12.14,12.14,0,0,1,2.65-4.11,12.41,12.41,0,0,1,4.05-2.71,14.18,14.18,0,0,1,10.31-.05,12.39,12.39,0,0,1,4.08,2.67,12.07,12.07,0,0,1,2.7,4.08,14.36,14.36,0,0,1,.05,10.31,12.08,12.08,0,0,1-2.65,4.11,12.41,12.41,0,0,1-4.05,2.71A13.35,13.35,0,0,1,423.43,48.54Zm0-2.71a9.51,9.51,0,0,0,3.94-.82,9.26,9.26,0,0,0,3.06-2.2,10,10,0,0,0,2-3.26,11.42,11.42,0,0,0,0-7.95,9.93,9.93,0,0,0-2-3.23,9.31,9.31,0,0,0-3.09-2.17,10.12,10.12,0,0,0-7.88,0,9.34,9.34,0,0,0-3.06,2.2,10,10,0,0,0-2,3.26,11.44,11.44,0,0,0,0,7.95,9.91,9.91,0,0,0,2,3.23,9.29,9.29,0,0,0,3.08,2.17A9.56,9.56,0,0,0,423.41,45.83Z"/><path class="cls-1" d="M451.21,41.42a8.59,8.59,0,0,1-.35,2.48,6.36,6.36,0,0,1-1.17,2.24,5.93,5.93,0,0,1-2.15,1.64,7.81,7.81,0,0,1-3.31.64,7,7,0,0,1-4.35-1.3,6.12,6.12,0,0,1-2.24-3.94l2.91-.61a4.09,4.09,0,0,0,1.21,2.3,3.51,3.51,0,0,0,2.49.84,4.15,4.15,0,0,0,2-.46,3.29,3.29,0,0,0,1.23-1.19,5,5,0,0,0,.6-1.68,11,11,0,0,0,.16-2l-0.09-17.21h2.92Z"/><path class="cls-1" d="M456.88,23.17l15.45-.08V25.8l-12.54.07,0,7.7,11.7-.06v2.71l-11.7.06,0,8.74,13.16-.07v2.71L457,47.74Z"/><path class="cls-1" d="M494.37,28a7,7,0,0,0-2.75-2.22,8.13,8.13,0,0,0-3.41-.73,8.53,8.53,0,0,0-3.77.85,9.42,9.42,0,0,0-3,2.25,10.27,10.27,0,0,0-1.93,3.27,10.93,10.93,0,0,0-.67,3.87,11.33,11.33,0,0,0,.71,4,10,10,0,0,0,1.94,3.22,9.05,9.05,0,0,0,3,2.15,9.54,9.54,0,0,0,7.83-.13A9.13,9.13,0,0,0,495.42,42l2.2,1.83a10.1,10.1,0,0,1-4,3.28,12.88,12.88,0,0,1-5.29,1.07,12.5,12.5,0,0,1-4.94-.95,12.15,12.15,0,0,1-4-2.67,12.4,12.4,0,0,1-2.66-4.07,13.63,13.63,0,0,1-1-5.16,13.82,13.82,0,0,1,.89-5.07,12.22,12.22,0,0,1,11.54-7.9,13.15,13.15,0,0,1,4.82.88,8.88,8.88,0,0,1,3.89,2.93Z"/><path class="cls-1" d="M517.73,25.56l-8.13,0,0.11,21.86H506.8l-0.11-21.86-8.13,0V23l19.17-.1v2.71Z"/><path class="cls-1" d="M25.5,68.35a0.35,0.35,0,0,1-.29-0.15L4.33,38.63a0.35,0.35,0,0,1,0-.35L19.43,5.37a0.35,0.35,0,0,1,.29-0.2l36-3.33A0.33,0.33,0,0,1,56,2L76.92,31.56a0.35,0.35,0,0,1,0,.35L61.83,64.82a0.35,0.35,0,0,1-.29.2l-36,3.33h0ZM5,38.39L25.67,67.63l35.61-3.29,15-32.54L55.59,2.56,20,5.85ZM61.51,64.67h0Z"/><path class="cls-1" d="M25.38,68.27L19.6,38.18l0-32.9,28.16,8.29,29.2,18.17L55.24,51ZM19.92,5.75l0,32.4,5.68,29.58L55,50.73,76.35,31.79,47.56,13.88Z"/><circle class="cls-1" cx="48.19" cy="13.9" r="1.05"/><path class="cls-1" d="M48.19,16.07a2.16,2.16,0,1,1,2.16-2.16A2.17,2.17,0,0,1,48.19,16.07Zm0-2.23-0.06.06a0.06,0.06,0,0,0,.06.06V13.84Z"/><circle class="cls-1" cx="55.19" cy="50.82" r="1.05"/><path class="cls-1" d="M55.19,53a2.16,2.16,0,1,1,2.16-2.16A2.17,2.17,0,0,1,55.19,53Zm0-2.23-0.06.06a0.06,0.06,0,0,0,.06.06V50.76Z"/><circle class="cls-1" cx="25.76" cy="68" r="1.05"/><path class="cls-1" d="M25.76,70.16A2.16,2.16,0,1,1,27.92,68,2.17,2.17,0,0,1,25.76,70.16Zm0-2.23L25.69,68a0.06,0.06,0,0,0,.06.06V67.94Z"/><circle class="cls-1" cx="19.74" cy="38.5" r="1.05"/><path class="cls-1" d="M19.74,40.66a2.16,2.16,0,1,1,2.16-2.16A2.17,2.17,0,0,1,19.74,40.66Zm0-2.23-0.06.06a0.06,0.06,0,0,0,.06.06V38.44Z"/><circle class="cls-1" cx="76.64" cy="31.82" r="1.05"/><path class="cls-1" d="M76.64,34a2.16,2.16,0,1,1,2.16-2.16A2.17,2.17,0,0,1,76.64,34Zm0-2.23-0.06.06a0.06,0.06,0,0,0,.06.06V31.75Z"/><circle class="cls-1" cx="19.74" cy="5.52" r="1.05"/><path class="cls-1" d="M19.74,7.68a2.16,2.16,0,1,1,2.16-2.16A2.17,2.17,0,0,1,19.74,7.68Zm0-2.23-0.06.06a0.06,0.06,0,0,0,.06.06V5.46Z"/><path class="cls-1" d="M61.51,65L61.4,65,33.94,55.31,4.45,38.73a0.35,0.35,0,0,1-.06-0.56L26.57,17.83l29-16a0.35,0.35,0,0,1,.31,0,0.35,0.35,0,0,1,.2.24l6.5,28.58-0.73,34A0.35,0.35,0,0,1,61.51,65ZM5.21,38.36l29,16.32,26.95,9.51L61.9,30.76l-6.39-28L27,18.4Z"/><path class="cls-1" d="M55.31,51l-0.14,0L19.57,38.53l0.11-.1L48.25,13.74ZM19.92,38.47L55.08,50.69,48.13,14.07Z"/><path class="cls-1" d="M33.83,55.63L26.35,17.55,62.94,30.64Zm-6.56-37,7,35.69L61.57,30.89Z"/><rect class="cls-1" x="22.93" y="4.59" width="0.7" height="14.42" transform="translate(-2.8 12.91) rotate(-29.33)"/><polygon class="cls-1" points="26.05 68.19 25.46 67.81 33.76 54.79 34.35 55.17 26.05 68.19"/><rect class="cls-1" x="69.1" y="24.08" width="0.7" height="14.42" transform="translate(33.18 98.27) rotate(-85.82)"/></svg>
